<svg width="32" height="32" viewBox="0 0 32 32" fill="none" xmlns="http://www.w3.org/2000/svg">
<rect width="32" height="32" rx="16" fill="#FF7E35"/>
<path d="M9.88721 12.2142V10.686C9.88721 10.264 10.2293 9.92188 10.6513 9.92188H21.3487C21.7707 9.92188 22.1128 10.264 22.1128 10.686V12.2142" stroke="white" stroke-width="1.3" stroke-linecap="round" stroke-linejoin="round"/>
<path fill-rule="evenodd" clip-rule="evenodd" d="M22.1128 12.2144H9.88715C9.46515 12.2144 9.12305 12.5565 9.12305 12.9785V21.3836C9.12305 22.2276 9.80725 22.9118 10.6512 22.9118H21.3487C22.1927 22.9118 22.8769 22.2276 22.8769 21.3836V12.9785C22.8769 12.5565 22.5348 12.2144 22.1128 12.2144Z" stroke="white" stroke-width="1.3" stroke-linecap="round" stroke-linejoin="round"/>
<path d="M19.0564 15.2705C19.0564 16.9585 17.688 18.3269 16 18.3269C14.312 18.3269 12.9436 16.9585 12.9436 15.2705" stroke="white" stroke-width="1.3" stroke-linecap="round" stroke-linejoin="round"/>
</svg>
