<svg width="32" height="32" viewBox="0 0 32 32" fill="none" xmlns="http://www.w3.org/2000/svg">
<rect width="32" height="32" rx="16" fill="#61C634"/>
<g clip-path="url(#clip0_4041_3820)">
<path d="M18.6993 20.7126C18.6993 19.9529 19.6571 19.0126 21.6575 19.0126C21.7771 19.0126 21.8968 19.0126 22.0146 19.0242C21.861 20.4852 20.7104 21.4848 19.5858 21.4848C19.0466 21.4848 18.6993 21.2314 18.6993 20.7126ZM14.819 12.7285H14.8432L14.2183 18.4939C13.5435 18.2908 12.855 18.1376 12.1581 18.0354L14.819 12.7285ZM10.4844 17.9149C8.99992 17.9149 7.44316 18.2889 6.64067 19.1807C6.19239 18.3269 5.96578 17.3729 5.9819 16.4072C5.9819 13.8379 7.64668 11.4501 10.8441 9.93437L10.4371 9.06593C6.68887 10.7758 5 13.5969 5 16.4072C5 17.7342 5.31153 19.0144 6.13722 20.2299C6.11333 20.3655 6.10137 20.503 6.10152 20.6407C6.10152 21.6656 6.73619 22.401 8.05372 22.401C9.43106 22.401 10.604 21.448 11.3109 19.5673H10.2809C9.76581 20.8214 8.92762 21.474 8.05372 21.474C7.37085 21.474 7.07182 21.1604 7.07182 20.6425C7.07182 19.7498 8.14923 18.8445 10.4969 18.8445C11.7285 18.8486 12.952 19.0439 14.1246 19.4234L13.9577 21.003H14.9155L15.8134 12.5001C16.3646 12.3825 16.9264 12.3223 17.4898 12.3203C19.5974 12.3203 20.1722 13.0683 20.1722 13.8766C20.1722 14.95 19.2983 15.697 17.2024 15.9389L17.5139 13.0324L16.5561 13.0683L15.7179 21.0039H16.6757L17.0944 16.988C17.8082 16.7937 18.543 16.6877 19.2822 16.6725C20.6953 16.6725 21.654 17.2514 21.9414 18.1109C21.8459 18.1012 21.7499 18.0973 21.654 18.0992C18.935 18.0992 17.7264 19.4981 17.7264 20.7288C17.7264 21.8139 18.5298 22.4171 19.5705 22.4171C21.088 22.4171 22.7323 21.1864 22.9626 19.1726C23.6557 19.3354 24.3187 19.6086 24.9264 19.9817C23.2857 22.4297 19.9687 24.0336 15.9929 24.0336C14.0407 24.0336 11.5984 23.6119 9.98182 22.4899L9.47837 23.2991C11.0717 24.457 13.622 25 15.9946 25C22.4493 25 27 21.1639 27 16.4243C27 11.4438 22.0539 7.84956 16.0071 7.84956C15.6358 7.84956 15.3724 7.86125 15.0128 7.88553L15.1083 8.83848C15.3957 8.82679 15.7072 8.8142 15.9946 8.8142C21.3951 8.8142 26.0181 12.0947 26.0181 16.4243C26.0203 17.377 25.8066 18.3175 25.3933 19.1744C24.7827 18.7762 23.8963 18.4147 22.9501 18.234C22.7465 17.0761 21.8013 16.0872 19.9687 15.8966C20.3279 15.6971 20.6275 15.4044 20.8364 15.0489C21.0454 14.6933 21.156 14.2879 21.1568 13.8748C21.1568 12.3914 20.115 11.3899 17.4925 11.3899C16.967 11.3912 16.4425 11.4357 15.9241 11.5229L16.0285 10.5061L15.0591 10.2409L14.221 11.9086C12.8677 12.3042 11.5502 12.8858 10.7718 13.3317L11.203 14.1642C11.9895 13.7576 12.8014 13.4029 13.6336 13.1025L11.2154 17.9392C10.9637 17.9266 10.7236 17.9149 10.4844 17.9149ZM14.2335 9.29158C14.2335 8.24243 13.048 7.30117 11.7341 7C11.6023 7.54122 11.5292 8.09526 11.5163 8.65238C11.5163 10.1241 12.2706 10.5574 12.9775 10.5574C13.73 10.5574 14.2325 10.0512 14.2325 9.29158H14.2335Z" fill="white"/>
</g>
<defs>
<clipPath id="clip0_4041_3820">
<rect width="22" height="18" fill="white" transform="translate(5 7)"/>
</clipPath>
</defs>
</svg>
