<svg width="32" height="32" viewBox="0 0 32 32" fill="none" xmlns="http://www.w3.org/2000/svg">
<rect width="32" height="32" rx="16" fill="#0F2F3B"/>
<path fill-rule="evenodd" clip-rule="evenodd" d="M12.2658 25.6709C12.5221 25.7655 12.7998 25.8177 13.0903 25.8177V17.7851C14.0069 18.4261 15.1319 18.8038 16.3481 18.8038C19.4286 18.8038 21.9259 16.3811 21.9259 13.3927C21.9259 10.4041 19.4286 7.98145 16.3481 7.98145C15.0117 7.98145 13.7852 8.43759 12.8246 9.19793H10.7703V23.5669C10.7703 24.2571 11.1564 24.9282 11.5948 25.2872C12.0332 25.6462 12.2658 25.6709 12.2658 25.6709ZM19.6058 13.3927C19.6058 11.6472 18.1472 10.2322 16.3481 10.2322C14.5488 10.2322 13.0903 11.6472 13.0903 13.3927C13.0903 15.1381 14.5488 16.553 16.3481 16.553C18.1472 16.553 19.6058 15.1381 19.6058 13.3927Z" fill="white"/>
</svg>
