<svg width="32" height="32" viewBox="0 0 32 32" fill="none" xmlns="http://www.w3.org/2000/svg">
<path d="M15.9989 32C19.1636 32.0002 22.2568 31.062 24.8885 29.304C27.5192 27.546 29.5706 25.0473 30.7817 22.1236C31.9928 19.2 32.3101 15.9829 31.6925 12.8792C31.0749 9.77541 29.5515 6.92439 27.3137 4.68665C25.0759 2.44891 22.2256 0.924961 19.1213 0.307517C16.018 -0.309929 12.8009 0.00686578 9.87702 1.21784C6.95311 2.42881 4.45438 4.47957 2.69621 7.11077C0.938031 9.74198 0 12.8355 0 16C0 20.2432 1.68563 24.3128 4.68612 27.3134C7.6866 30.3139 11.7551 31.9997 15.9989 32Z" fill="#BE1010"/>
<path d="M12.8 21.5973H10.3413C10.2349 21.0633 10.1293 20.5267 10.0246 19.9936C9.91981 19.4605 9.80752 18.963 9.68936 18.5064C9.60388 18.169 9.52008 17.882 9.43796 17.6454C9.36589 17.43 9.26282 17.227 9.13293 17.0428C9.02735 16.8852 8.88573 16.758 8.71981 16.6731C8.54048 16.589 8.34522 16.5476 8.14829 16.5523V19.971C8.14662 20.1315 8.16841 20.2914 8.21366 20.445C8.25137 20.5765 8.33014 20.6914 8.43741 20.772C8.52875 20.83 8.62847 20.8745 8.73154 20.9042C8.84048 20.944 8.95277 20.9731 9.06674 20.9911V21.5999H5.59998V20.9911C5.71227 20.9816 5.82456 20.9651 5.93517 20.9416C6.04579 20.9245 6.15388 20.8889 6.2536 20.8363C6.36338 20.7664 6.44383 20.6566 6.47986 20.5285C6.52512 20.3707 6.54607 20.2068 6.54355 20.0423V12.2238C6.5469 12.0688 6.52763 11.914 6.4874 11.7646C6.4455 11.6325 6.36338 11.5179 6.2536 11.4376C6.14801 11.3601 6.03321 11.2987 5.91087 11.255C5.81115 11.2127 5.70807 11.1801 5.60248 11.1576V10.5488H9.06924V11.1576C8.95528 11.1723 8.84299 11.1982 8.73405 11.235C8.63181 11.2663 8.5321 11.3053 8.43573 11.3515C8.37791 11.3859 8.32679 11.4324 8.28656 11.4881C8.24634 11.5437 8.21785 11.6074 8.20193 11.6751C8.16506 11.8292 8.14578 11.9875 8.14662 12.1464V15.82H8.44075C8.57148 15.8187 8.69969 15.7891 8.81869 15.733C8.97036 15.6536 9.09438 15.5276 9.17483 15.3721C9.38265 15.0223 9.54691 14.6465 9.66339 14.2537C9.76981 13.8788 9.86366 13.4927 9.94243 13.0987C10.0329 12.6639 10.11 12.2917 10.1855 11.9899C10.2785 11.6376 10.4234 11.3023 10.6153 10.9958C10.7117 10.8221 10.8441 10.6734 11.0042 10.561C11.1525 10.4559 11.3276 10.3998 11.507 10.4001C11.6494 10.397 11.7894 10.432 11.9151 10.5018C12.0399 10.5716 12.1455 10.6738 12.2218 10.7984C12.3969 11.0593 12.4832 11.4011 12.4832 11.8099C12.4832 12.2621 12.4103 12.6126 12.2628 12.8657C12.1153 13.1187 11.9276 13.2422 11.6972 13.2422C11.6167 13.2371 11.538 13.2151 11.4659 13.1776C11.3938 13.14 11.3301 13.0878 11.2782 13.0239C11.1399 12.8796 10.9773 12.5978 10.788 12.1838C10.674 12.4177 10.5936 12.6681 10.5508 12.9265C10.4838 13.2634 10.4209 13.5553 10.3631 13.8023C10.2801 14.2024 10.1653 14.5947 10.0204 14.9755C9.924 15.2159 9.79411 15.4403 9.63489 15.6417V15.7808C10.0681 15.9818 10.4327 16.3129 10.6824 16.7314C10.9832 17.2299 11.2095 17.773 11.3528 18.3421C11.4282 18.6169 11.5053 18.91 11.5857 19.2187C11.6662 19.5274 11.7357 19.7901 11.7952 20.0075C11.8882 20.3458 11.9804 20.5685 12.0693 20.678C12.1246 20.7596 12.2008 20.8239 12.2888 20.8641C12.3709 20.8942 12.4547 20.9192 12.5402 20.9389C12.6416 20.9616 12.7246 20.9772 12.7916 20.9885L12.8 21.5973Z" fill="white"/>
<path d="M19.1948 19.8145H16.8127C16.7466 19.7186 16.6645 19.5933 16.5613 19.4376C16.4581 19.2819 16.3698 19.1435 16.2966 19.0222C16.0664 19.3216 15.7752 19.576 15.4391 19.7711C15.163 19.9211 14.8489 20 14.5295 19.9996C14.2913 20.0046 14.0549 19.9582 13.8396 19.8643C13.6235 19.7703 13.4347 19.6313 13.2864 19.4581C12.9627 19.097 12.8012 18.6271 12.8003 18.0481C12.7968 17.7974 12.8259 17.5473 12.8886 17.3033C12.9521 17.0851 13.0465 16.876 13.1709 16.6815C13.2953 16.4813 13.4505 16.2996 13.6332 16.1424C13.8255 15.9774 14.0319 15.8274 14.2507 15.6942C14.0452 15.3637 13.8749 15.0152 13.7434 14.6537C13.6473 14.3692 13.5988 14.0727 13.5988 13.7746C13.5988 13.2606 13.7611 12.8362 14.0858 12.5014C14.2287 12.3438 14.4069 12.2173 14.608 12.1308C14.8092 12.0444 15.0289 12 15.2503 12.0008C15.4417 11.9944 15.6323 12.0264 15.8096 12.0948C15.9861 12.1631 16.1449 12.266 16.2754 12.3965C16.5401 12.6628 16.6672 13.0118 16.6672 13.4485C16.6742 13.7991 16.5939 14.1464 16.4334 14.4636C16.241 14.8035 15.9737 15.1021 15.6499 15.3403C15.9437 15.84 16.1722 16.2164 16.3337 16.4693C16.4951 16.7222 16.7095 17.0537 16.9751 17.4639C17.1303 17.1683 17.2591 16.8611 17.3597 16.5455C17.4356 16.3175 17.4788 16.0811 17.4868 15.8425C17.4859 15.7883 17.4691 15.7353 17.4382 15.6895C17.4065 15.6437 17.3624 15.6067 17.3103 15.5828C17.1497 15.5013 16.9795 15.439 16.8021 15.3976V14.988H19.0677V15.3976C18.8807 15.4129 18.6972 15.4523 18.5225 15.5148C18.3805 15.5875 18.2614 15.6931 18.1758 15.8212C18.1052 15.9291 18.0461 16.0432 17.9993 16.162C17.927 16.3259 17.8599 16.4807 17.7938 16.6307C17.7152 16.8134 17.6332 17.0051 17.5423 17.2042C17.4462 17.4188 17.3377 17.6286 17.2177 17.8326C17.4056 18.1316 17.612 18.4204 17.8352 18.6978C17.949 18.8437 18.0814 18.9761 18.2296 19.0919C18.3619 19.1821 18.5119 19.248 18.6707 19.286C18.8427 19.3347 19.0201 19.3665 19.2 19.3811L19.1948 19.8145ZM16.0822 18.674L15.2882 17.4123C14.9874 16.9346 14.7068 16.4775 14.4475 16.0473C14.2993 16.2432 14.1943 16.4639 14.1369 16.697C14.0734 16.9423 14.0416 17.1937 14.0416 17.4459C14.0416 17.9219 14.1572 18.3086 14.3866 18.6101C14.616 18.9116 14.9089 19.0599 15.2618 19.0599C15.41 19.0645 15.5573 19.0364 15.6914 18.978C15.8414 18.9019 15.9746 18.7992 16.0822 18.6757M16.0522 13.5362C16.0522 13.2224 15.9958 12.9758 15.8811 12.7988C15.7664 12.6218 15.6164 12.5284 15.4338 12.5284C15.3482 12.5282 15.2635 12.5485 15.1885 12.5876C15.1136 12.6267 15.0509 12.683 15.0068 12.7513C14.8912 12.9251 14.8348 13.1273 14.8454 13.3313C14.8524 13.5721 14.9036 13.8099 14.9953 14.0351C15.1259 14.3628 15.2803 14.682 15.4567 14.9904C15.6596 14.8053 15.814 14.579 15.9076 14.3293C16.0046 14.0761 16.054 13.8091 16.0522 13.5403" fill="white"/>
<path d="M26.3994 18.2478C26.4071 18.7507 26.3347 19.2515 26.1846 19.73C26.0627 20.1246 25.865 20.4895 25.6024 20.8024C25.3833 21.0569 25.1156 21.2613 24.8156 21.4025C24.5343 21.5327 24.2299 21.6 23.9213 21.5999H20V20.9831C20.0852 20.9681 20.2054 20.9443 20.3546 20.9161C20.4629 20.9013 20.5669 20.8651 20.6624 20.8095C20.7715 20.7376 20.8525 20.6284 20.8908 20.501C20.9386 20.3375 20.9607 20.167 20.9565 19.9961V12.1006C20.9582 11.9421 20.9386 11.7841 20.8993 11.6309C20.8584 11.4949 20.7749 11.3768 20.6624 11.2952C20.5558 11.2221 20.4416 11.1628 20.3214 11.119C20.2165 11.0776 20.1091 11.0434 20 11.0167V10.3999H25.824V13.6039H25.4617C25.3415 13.0482 25.1702 12.5057 24.9503 11.9834C24.7474 11.5135 24.5658 11.2567 24.4064 11.2132C24.2956 11.1783 24.1813 11.1546 24.0654 11.1427C23.9341 11.1267 23.802 11.1188 23.6699 11.119H22.583V15.1028C22.7228 15.0984 22.8805 15.0879 23.051 15.0738C23.2215 15.0597 23.392 15.0544 23.5471 15.0544C23.9247 15.0501 24.3007 15.1064 24.6613 15.2209C24.9963 15.3329 25.3032 15.5215 25.5581 15.7725C25.8309 16.0477 26.0397 16.3838 26.1676 16.7551C26.3295 17.2326 26.4063 17.7366 26.3943 18.2425M24.5777 18.3562C24.5777 17.5444 24.4439 16.924 24.1754 16.4951C24.056 16.291 23.8855 16.1237 23.6818 16.0106C23.4789 15.8975 23.2504 15.8427 23.0194 15.8519C22.9606 15.8519 22.8847 15.8519 22.7918 15.8642C22.6989 15.8765 22.6273 15.8792 22.583 15.8827V20.1821C22.6043 20.3756 22.6955 20.5538 22.837 20.6821C22.9785 20.8104 23.1618 20.8797 23.3502 20.8764C23.7159 20.8764 24.0108 20.6538 24.2359 20.2085C24.4609 19.7632 24.5743 19.1464 24.5769 18.358" fill="white"/>
</svg>
