<svg width="32" height="32" viewBox="0 0 32 32" fill="none" xmlns="http://www.w3.org/2000/svg">
<rect width="32" height="32" rx="16" fill="#E6000E"/>
<path d="M17.474 19.048V15.95L16 17.645L14.525 15.951V19.048H12.57V12.952H14.421L16 14.912L17.577 12.952H19.429V19.048H17.474ZM13.128 8H24V10H12.564C11.672 10 11.349 10.093 11.024 10.267C10.697 10.441 10.441 10.697 10.267 11.023C10.093 11.349 10 11.673 10 12.563V17C10 17.5304 9.78929 18.0391 9.41421 18.4142C9.03914 18.7893 8.53043 19 8 19V13.128C8 11.345 8.186 10.698 8.534 10.046C8.87501 9.40181 9.40181 8.87501 10.046 8.534C10.698 8.186 11.345 8 13.128 8ZM18.872 24H8V22H19.436C20.328 22 20.651 21.907 20.976 21.733C21.303 21.559 21.559 21.303 21.733 20.977C21.907 20.651 22 20.327 22 19.437V15C22 14.4696 22.2107 13.9609 22.5858 13.5858C22.9609 13.2107 23.4696 13 24 13V18.872C24 20.655 23.814 21.302 23.466 21.954C23.125 22.5982 22.5982 23.125 21.954 23.466C21.302 23.814 20.655 24 18.872 24Z" fill="white"/>
</svg>
